<?xml version="1.0" standalone="no"?>
<!DOCTYPE svg PUBLIC "-//W3C//DTD SVG 20010904//EN"
 "http://www.w3.org/TR/2001/REC-SVG-20010904/DTD/svg10.dtd">
<svg version="1.0" xmlns="http://www.w3.org/2000/svg"
 width="700.000000pt" height="700.000000pt" viewBox="0 0 700.000000 700.000000"
 preserveAspectRatio="xMidYMid meet">
<metadata>
Created by potrace 1.14, written by Peter Selinger 2001-2017
</metadata>
<g transform="translate(0.000000,700.000000) scale(0.100000,-0.100000)"
fill="#000000" stroke="none">
<path d="M5028 5135 c-2 -2 -37 -5 -78 -9 -250 -20 -483 -99 -690 -234 -81
-53 -124 -89 -209 -172 -263 -257 -425 -626 -458 -1040 -9 -110 -9 -374 0
-470 22 -230 77 -438 162 -618 44 -93 149 -260 199 -317 250 -283 518 -431
901 -496 86 -14 369 -19 456 -8 104 14 130 19 199 35 333 77 630 280 819 561
104 156 184 364 206 538 3 21 -1 21 -348 20 l-350 0 -17 -60 c-51 -184 -180
-341 -340 -412 -86 -39 -126 -51 -230 -69 -48 -8 -194 -8 -259 1 -129 16 -312
102 -403 189 -143 135 -257 377 -283 601 -3 28 -8 66 -11 85 -7 50 -6 337 1
385 28 180 32 199 62 290 83 257 240 437 459 529 34 14 72 27 85 30 13 2 43 9
66 14 74 17 270 12 358 -9 253 -62 433 -236 494 -479 l19 -75 348 0 349 0 -3
35 c-11 115 -62 289 -122 415 -63 130 -137 234 -244 341 -223 222 -492 344
-856 390 -45 5 -278 13 -282 9z"/>
<path d="M455 3448 l0 -1642 335 -1 c184 0 341 1 348 3 9 3 12 219 12 1032 0
617 4 1031 9 1035 5 3 32 -27 59 -67 28 -40 60 -86 72 -103 55 -78 144 -208
239 -347 58 -84 107 -155 110 -158 4 -3 29 -39 57 -80 27 -41 162 -237 299
-435 136 -198 278 -403 314 -455 36 -52 83 -121 105 -152 44 -61 162 -234 176
-257 7 -12 58 -15 300 -15 161 -1 297 2 302 6 8 4 11 506 11 1640 l0 1633
-346 3 -347 2 0 -1029 c0 -848 -2 -1030 -13 -1034 -9 -3 -41 35 -89 106 -42
62 -107 157 -145 212 -105 153 -302 439 -371 540 -34 50 -75 109 -92 133 -16
23 -30 47 -30 52 0 4 -4 10 -8 12 -4 2 -43 55 -87 118 -43 63 -102 149 -130
190 -181 262 -414 603 -443 648 l-35 52 -306 0 -306 0 0 -1642z"/>
</g>
</svg>
