<?xml version="1.0" standalone="no"?>
<!DOCTYPE svg PUBLIC "-//W3C//DTD SVG 20010904//EN"
 "http://www.w3.org/TR/2001/REC-SVG-20010904/DTD/svg10.dtd">
<svg version="1.0" xmlns="http://www.w3.org/2000/svg"
 width="700.000000pt" height="700.000000pt" viewBox="0 0 700.000000 700.000000"
 preserveAspectRatio="xMidYMid meet">
<metadata>
Created by potrace 1.14, written by Peter Selinger 2001-2017
</metadata>
<g transform="translate(0.000000,700.000000) scale(0.100000,-0.100000)"
fill="#000000" stroke="none">
<path d="M5520 5407 c-3 -3 -32 -7 -65 -11 -57 -6 -126 -17 -205 -31 -19 -4
-66 -16 -105 -27 -328 -93 -570 -231 -790 -452 -131 -132 -189 -206 -273 -348
-43 -74 -66 -119 -113 -223 -39 -88 -99 -296 -114 -395 -4 -25 -9 -53 -11 -64
-20 -105 -26 -483 -11 -621 23 -216 69 -399 146 -582 102 -246 291 -499 489
-655 37 -29 69 -55 72 -58 3 -3 41 -29 86 -57 223 -142 465 -231 729 -269 22
-3 51 -8 65 -11 43 -9 462 -12 525 -3 33 5 80 11 105 14 46 6 77 12 118 21 12
3 31 7 42 9 116 26 304 87 410 133 51 22 58 35 50 90 -4 27 -11 75 -14 108
-11 101 -17 149 -21 180 -2 17 -7 57 -11 90 -3 33 -8 69 -9 80 -1 11 -3 28 -4
37 -1 15 -9 13 -68 -13 -140 -63 -387 -138 -538 -164 -135 -23 -511 -23 -576
0 -8 2 -25 6 -39 9 -41 7 -151 36 -168 45 -10 5 -46 21 -82 37 -131 58 -283
181 -382 311 -147 190 -236 440 -264 736 -11 128 -6 350 11 452 37 216 89 366
176 518 102 175 265 329 447 421 63 32 214 83 268 91 21 3 46 8 53 11 49 16
309 23 441 11 187 -17 430 -81 638 -170 50 -21 82 -31 83 -24 0 7 2 19 3 27 2
8 6 47 10 85 8 73 10 95 22 185 3 30 8 66 9 80 2 14 6 57 10 95 4 39 9 73 11
76 7 11 -19 26 -106 62 -155 64 -367 124 -510 143 -24 3 -56 8 -70 11 -34 6
-465 15 -470 10z"/>
<path d="M330 3500 l0 -1837 305 0 305 0 2 1325 3 1325 883 -1325 883 -1325
254 0 253 1 -1 1835 -2 1836 -285 2 c-157 1 -294 0 -305 -2 -20 -4 -20 -12
-19 -1255 l0 -1251 -270 408 c-386 583 -1064 1610 -1234 1868 -80 121 -149
223 -155 226 -5 4 -146 6 -313 7 l-304 0 0 -1838z"/>
</g>
</svg>
