<svg width="326" height="80" viewBox="0 0 326 80" fill="none" xmlns="http://www.w3.org/2000/svg">
<path d="M42.8608 25.9091V55H37.5483L24.892 36.6903H24.679V55H18.5284V25.9091H23.9261L36.483 44.2045H36.7386V25.9091H42.8608ZM56.4868 55.4261C54.2804 55.4261 52.3722 54.9574 50.7624 54.0199C49.162 53.0729 47.9262 51.7566 47.055 50.071C46.1838 48.3759 45.7482 46.411 45.7482 44.1761C45.7482 41.9223 46.1838 39.9527 47.055 38.267C47.9262 36.572 49.162 35.2557 50.7624 34.3182C52.3722 33.3712 54.2804 32.8977 56.4868 32.8977C58.6932 32.8977 60.5966 33.3712 62.197 34.3182C63.8069 35.2557 65.0474 36.572 65.9186 38.267C66.7898 39.9527 67.2254 41.9223 67.2254 44.1761C67.2254 46.411 66.7898 48.3759 65.9186 50.071C65.0474 51.7566 63.8069 53.0729 62.197 54.0199C60.5966 54.9574 58.6932 55.4261 56.4868 55.4261ZM56.5152 50.7386C57.519 50.7386 58.3571 50.4545 59.0294 49.8864C59.7018 49.3087 60.2084 48.5227 60.5493 47.5284C60.8997 46.5341 61.0749 45.4025 61.0749 44.1335C61.0749 42.8646 60.8997 41.733 60.5493 40.7386C60.2084 39.7443 59.7018 38.9583 59.0294 38.3807C58.3571 37.803 57.519 37.5142 56.5152 37.5142C55.5019 37.5142 54.6497 37.803 53.9584 38.3807C53.2766 38.9583 52.7605 39.7443 52.4101 40.7386C52.0692 41.733 51.8987 42.8646 51.8987 44.1335C51.8987 45.4025 52.0692 46.5341 52.4101 47.5284C52.7605 48.5227 53.2766 49.3087 53.9584 49.8864C54.6497 50.4545 55.5019 50.7386 56.5152 50.7386ZM69.9601 55V33.1818H75.7271V37.0312H75.9828C76.4374 35.7528 77.1949 34.7443 78.2555 34.0057C79.3161 33.267 80.5851 32.8977 82.0624 32.8977C83.5586 32.8977 84.8322 33.2718 85.8834 34.0199C86.9345 34.7585 87.6353 35.7623 87.9857 37.0312H88.2129C88.658 35.7812 89.4629 34.7822 90.6277 34.0341C91.8019 33.2765 93.1893 32.8977 94.7896 32.8977C96.8256 32.8977 98.4781 33.5464 99.747 34.8438C101.025 36.1316 101.665 37.9593 101.665 40.3267V55H95.6277V41.5199C95.6277 40.3078 95.3057 39.3987 94.6618 38.7926C94.0179 38.1866 93.2129 37.8835 92.247 37.8835C91.1485 37.8835 90.2915 38.2339 89.676 38.9347C89.0605 39.6259 88.7527 40.5398 88.7527 41.6761V55H82.8862V41.392C82.8862 40.322 82.5785 39.4697 81.9629 38.8352C81.3569 38.2008 80.5567 37.8835 79.5624 37.8835C78.89 37.8835 78.2839 38.054 77.7442 38.3949C77.2139 38.7263 76.7925 39.1951 76.48 39.8011C76.1675 40.3977 76.0112 41.0985 76.0112 41.9034V55H69.9601ZM111.466 55.4119C110.074 55.4119 108.833 55.1705 107.744 54.6875C106.655 54.1951 105.794 53.4706 105.159 52.5142C104.534 51.5483 104.222 50.3456 104.222 48.9062C104.222 47.6941 104.444 46.6761 104.889 45.8523C105.334 45.0284 105.94 44.3655 106.708 43.8636C107.475 43.3617 108.346 42.983 109.321 42.7273C110.306 42.4716 111.338 42.2917 112.418 42.1875C113.687 42.0549 114.709 41.9318 115.486 41.8182C116.262 41.6951 116.826 41.5152 117.176 41.2784C117.527 41.0417 117.702 40.6913 117.702 40.2273V40.142C117.702 39.2424 117.418 38.5464 116.85 38.054C116.291 37.5616 115.495 37.3153 114.463 37.3153C113.374 37.3153 112.508 37.5568 111.864 38.0398C111.22 38.5133 110.794 39.1098 110.585 39.8295L104.989 39.375C105.273 38.0492 105.832 36.9034 106.665 35.9375C107.498 34.9621 108.573 34.214 109.889 33.6932C111.215 33.1629 112.749 32.8977 114.492 32.8977C115.704 32.8977 116.864 33.0398 117.972 33.3239C119.089 33.608 120.079 34.0483 120.94 34.6449C121.812 35.2415 122.498 36.0085 123 36.946C123.502 37.8741 123.753 38.9867 123.753 40.2841V55H118.014V51.9744H117.844C117.494 52.6562 117.025 53.2576 116.438 53.7784C115.851 54.2898 115.145 54.6922 114.321 54.9858C113.497 55.2699 112.546 55.4119 111.466 55.4119ZM113.199 51.2358C114.089 51.2358 114.875 51.0606 115.557 50.7102C116.239 50.3504 116.774 49.8674 117.162 49.2614C117.55 48.6553 117.744 47.9687 117.744 47.2017V44.8864C117.555 45.0095 117.295 45.1231 116.963 45.2273C116.641 45.322 116.277 45.4119 115.869 45.4972C115.462 45.5729 115.055 45.6439 114.648 45.7102C114.241 45.767 113.871 45.8191 113.54 45.8665C112.83 45.9706 112.209 46.1364 111.679 46.3636C111.149 46.5909 110.737 46.8987 110.443 47.2869C110.15 47.6657 110.003 48.1392 110.003 48.7074C110.003 49.5312 110.301 50.161 110.898 50.5966C111.504 51.0227 112.271 51.2358 113.199 51.2358ZM135.287 55.3551C133.63 55.3551 132.129 54.929 130.785 54.0767C129.449 53.215 128.389 51.9508 127.603 50.2841C126.826 48.608 126.438 46.553 126.438 44.1193C126.438 41.6193 126.84 39.5407 127.645 37.8835C128.45 36.2169 129.52 34.9716 130.856 34.1477C132.2 33.3144 133.673 32.8977 135.273 32.8977C136.495 32.8977 137.513 33.1061 138.327 33.5227C139.151 33.9299 139.814 34.4413 140.316 35.0568C140.827 35.6629 141.215 36.2595 141.481 36.8466H141.665V25.9091H147.702V55H141.736V51.5057H141.481C141.196 52.1117 140.794 52.7131 140.273 53.3097C139.762 53.8968 139.094 54.3845 138.27 54.7727C137.456 55.161 136.462 55.3551 135.287 55.3551ZM137.205 50.5398C138.18 50.5398 139.004 50.2746 139.677 49.7443C140.358 49.2045 140.879 48.4517 141.239 47.4858C141.608 46.5199 141.793 45.3883 141.793 44.0909C141.793 42.7936 141.613 41.6667 141.253 40.7102C140.893 39.7538 140.373 39.0152 139.691 38.4943C139.009 37.9735 138.18 37.7131 137.205 37.7131C136.211 37.7131 135.373 37.983 134.691 38.5227C134.009 39.0625 133.493 39.8106 133.142 40.767C132.792 41.7235 132.617 42.8314 132.617 44.0909C132.617 45.3598 132.792 46.482 133.142 47.4574C133.502 48.4233 134.018 49.1809 134.691 49.7301C135.373 50.2699 136.211 50.5398 137.205 50.5398ZM185.316 36.0938H179.095C178.981 35.2888 178.749 34.5739 178.399 33.9489C178.048 33.3144 177.599 32.7746 177.049 32.3295C176.5 31.8845 175.866 31.5436 175.146 31.3068C174.436 31.0701 173.664 30.9517 172.831 30.9517C171.325 30.9517 170.013 31.3258 168.896 32.0739C167.778 32.8125 166.912 33.892 166.296 35.3125C165.681 36.7235 165.373 38.4375 165.373 40.4545C165.373 42.5284 165.681 44.2708 166.296 45.6818C166.921 47.0928 167.793 48.1581 168.91 48.8778C170.028 49.5975 171.32 49.9574 172.788 49.9574C173.612 49.9574 174.374 49.8485 175.075 49.6307C175.785 49.4129 176.415 49.0956 176.964 48.679C177.513 48.2528 177.968 47.7367 178.328 47.1307C178.697 46.5246 178.953 45.8333 179.095 45.0568L185.316 45.0852C185.155 46.4205 184.753 47.7083 184.109 48.9489C183.474 50.1799 182.617 51.2831 181.538 52.2585C180.468 53.2244 179.189 53.9915 177.703 54.5597C176.225 55.1184 174.554 55.3977 172.688 55.3977C170.094 55.3977 167.774 54.8106 165.728 53.6364C163.692 52.4621 162.082 50.7623 160.899 48.5369C159.724 46.3116 159.137 43.6174 159.137 40.4545C159.137 37.2822 159.734 34.5833 160.927 32.358C162.12 30.1326 163.74 28.4375 165.785 27.2727C167.831 26.0985 170.132 25.5114 172.688 25.5114C174.374 25.5114 175.937 25.7481 177.376 26.2216C178.825 26.6951 180.108 27.3864 181.225 28.2955C182.343 29.1951 183.252 30.2983 183.953 31.6051C184.663 32.9119 185.117 34.4081 185.316 36.0938ZM198.271 55.4261C196.065 55.4261 194.157 54.9574 192.547 54.0199C190.946 53.0729 189.711 51.7566 188.839 50.071C187.968 48.3759 187.533 46.411 187.533 44.1761C187.533 41.9223 187.968 39.9527 188.839 38.267C189.711 36.572 190.946 35.2557 192.547 34.3182C194.157 33.3712 196.065 32.8977 198.271 32.8977C200.478 32.8977 202.381 33.3712 203.981 34.3182C205.591 35.2557 206.832 36.572 207.703 38.267C208.574 39.9527 209.01 41.9223 209.01 44.1761C209.01 46.411 208.574 48.3759 207.703 50.071C206.832 51.7566 205.591 53.0729 203.981 54.0199C202.381 54.9574 200.478 55.4261 198.271 55.4261ZM198.3 50.7386C199.303 50.7386 200.141 50.4545 200.814 49.8864C201.486 49.3087 201.993 48.5227 202.334 47.5284C202.684 46.5341 202.859 45.4025 202.859 44.1335C202.859 42.8646 202.684 41.733 202.334 40.7386C201.993 39.7443 201.486 38.9583 200.814 38.3807C200.141 37.803 199.303 37.5142 198.3 37.5142C197.286 37.5142 196.434 37.803 195.743 38.3807C195.061 38.9583 194.545 39.7443 194.194 40.7386C193.854 41.733 193.683 42.8646 193.683 44.1335C193.683 45.4025 193.854 46.5341 194.194 47.5284C194.545 48.5227 195.061 49.3087 195.743 49.8864C196.434 50.4545 197.286 50.7386 198.3 50.7386ZM225.736 45.7102V33.1818H231.787V55H225.977V51.0369H225.75C225.258 52.3153 224.439 53.3428 223.293 54.1193C222.156 54.8958 220.769 55.2841 219.131 55.2841C217.672 55.2841 216.389 54.9527 215.281 54.2898C214.173 53.6269 213.307 52.6847 212.682 51.4631C212.066 50.2415 211.754 48.7784 211.744 47.0739V33.1818H217.796V45.9943C217.805 47.2822 218.151 48.3002 218.833 49.0483C219.514 49.7964 220.428 50.1705 221.574 50.1705C222.303 50.1705 222.985 50.0047 223.619 49.6733C224.254 49.3324 224.765 48.8305 225.154 48.1676C225.551 47.5047 225.745 46.6856 225.736 45.7102ZM241.478 42.3864V55H235.427V33.1818H241.194V37.0312H241.45C241.933 35.7623 242.743 34.7585 243.879 34.0199C245.015 33.2718 246.393 32.8977 248.012 32.8977C249.528 32.8977 250.849 33.2292 251.976 33.892C253.102 34.5549 253.978 35.5019 254.603 36.733C255.228 37.9545 255.541 39.4129 255.541 41.108V55H249.49V42.1875C249.499 40.8523 249.158 39.8106 248.467 39.0625C247.776 38.3049 246.824 37.9261 245.612 37.9261C244.798 37.9261 244.078 38.1013 243.453 38.4517C242.837 38.8021 242.354 39.3134 242.004 39.9858C241.663 40.6487 241.488 41.4489 241.478 42.3864ZM270.715 33.1818V37.7273H257.576V33.1818H270.715ZM260.559 27.9545H266.61V48.2955C266.61 48.8542 266.695 49.2898 266.866 49.6023C267.036 49.9053 267.273 50.1184 267.576 50.2415C267.888 50.3646 268.248 50.4261 268.656 50.4261C268.94 50.4261 269.224 50.4025 269.508 50.3551C269.792 50.2983 270.01 50.2557 270.161 50.2273L271.113 54.7301C270.81 54.8248 270.384 54.9337 269.835 55.0568C269.285 55.1894 268.618 55.2699 267.832 55.2983C266.373 55.3551 265.095 55.161 263.996 54.7159C262.907 54.2708 262.06 53.5795 261.454 52.642C260.848 51.7045 260.549 50.5208 260.559 49.0909V27.9545ZM283.166 55.4261C280.921 55.4261 278.99 54.9716 277.37 54.0625C275.76 53.1439 274.52 51.8466 273.649 50.1705C272.778 48.4848 272.342 46.4915 272.342 44.1903C272.342 41.946 272.778 39.9763 273.649 38.2812C274.52 36.5862 275.746 35.2652 277.328 34.3182C278.919 33.3712 280.784 32.8977 282.924 32.8977C284.364 32.8977 285.704 33.1297 286.944 33.5938C288.194 34.0483 289.283 34.7348 290.211 35.6534C291.149 36.572 291.878 37.7273 292.399 39.1193C292.92 40.5019 293.18 42.1212 293.18 43.9773V45.6392H274.757V41.8892H287.484C287.484 41.018 287.295 40.2462 286.916 39.5739C286.537 38.9015 286.011 38.3759 285.339 37.9972C284.676 37.6089 283.904 37.4148 283.024 37.4148C282.105 37.4148 281.291 37.6278 280.581 38.054C279.88 38.4706 279.331 39.0341 278.933 39.7443C278.535 40.4451 278.331 41.2263 278.322 42.0881V45.6534C278.322 46.733 278.521 47.6657 278.919 48.4517C279.326 49.2377 279.899 49.8438 280.637 50.2699C281.376 50.696 282.252 50.9091 283.265 50.9091C283.938 50.9091 284.553 50.8144 285.112 50.625C285.671 50.4356 286.149 50.1515 286.546 49.7727C286.944 49.3939 287.247 48.9299 287.456 48.3807L293.052 48.75C292.768 50.0947 292.186 51.2689 291.305 52.2727C290.434 53.267 289.307 54.0436 287.924 54.6023C286.551 55.1515 284.965 55.4261 283.166 55.4261ZM295.929 55V33.1818H301.795V36.9886H302.023C302.42 35.6345 303.088 34.6117 304.025 33.9205C304.963 33.2197 306.042 32.8693 307.264 32.8693C307.567 32.8693 307.894 32.8883 308.244 32.9261C308.595 32.964 308.902 33.0161 309.167 33.0824V38.4517C308.883 38.3665 308.49 38.2907 307.989 38.2244C307.487 38.1581 307.027 38.125 306.611 38.125C305.721 38.125 304.925 38.3191 304.224 38.7074C303.533 39.0862 302.984 39.6165 302.577 40.2983C302.179 40.9801 301.98 41.7661 301.98 42.6562V55H295.929Z" fill="#471AA0"/>
</svg>
